<svg id="visual" viewBox="0 0 1800 1200" width="1800" height="1200" xmlns="http://www.w3.org/2000/svg" xmlns:xlink="http://www.w3.org/1999/xlink" version="1.1"><rect x="0" y="0" width="1800" height="1200" fill="#E7e7e9"></rect><path d="M0 899L257 883L514 835L771 992L1029 985L1286 914L1543 963L1800 867L1800 1201L1543 1201L1286 1201L1029 1201L771 1201L514 1201L257 1201L0 1201Z" fill="#ff6f61"></path><path d="M0 923L257 1016L514 915L771 925L1029 948L1286 1014L1543 992L1800 981L1800 1201L1543 1201L1286 1201L1029 1201L771 1201L514 1201L257 1201L0 1201Z" fill="#c35a3d"></path><path d="M0 984L257 1094L514 1107L771 990L1029 1094L1286 1025L1543 998L1800 1059L1800 1201L1543 1201L1286 1201L1029 1201L771 1201L514 1201L257 1201L0 1201Z" fill="#8b4421"></path><path d="M0 1148L257 1105L514 1133L771 1147L1029 1096L1286 1154L1543 1053L1800 1061L1800 1201L1543 1201L1286 1201L1029 1201L771 1201L514 1201L257 1201L0 1201Z" fill="#582d0a"></path></svg>